<svg width="27" height="18" viewBox="0 0 27 18" fill="none" xmlns="http://www.w3.org/2000/svg">
<path d="M24.3704 3.39998H5.85185C4.74074 3.39998 4 2.71998 4 1.69999C4 0.679995 4.74074 0 5.85185 0H24.3704C25.4815 0 26.2222 0.679995 26.2222 1.69999C26.2222 2.71998 25.8519 3.39998 24.3704 3.39998Z" fill="#35E599"/>
<path d="M24.0741 10.4H1.85185C0.740741 10.4 0 9.71998 0 8.69999C0 7.68 0.740741 7 1.85185 7H24.0741C25.1852 7 25.9259 7.68 25.9259 8.69999C25.9259 9.71998 25.5556 10.4 24.0741 10.4Z" fill="#35E599"/>
<path d="M23.963 17.4H12.8519C11.7407 17.4 11 16.72 11 15.7C11 14.68 11.7407 14 12.8519 14H23.963C25.0741 14 25.8148 14.68 25.8148 15.7C25.8148 16.72 25.4444 17.4 23.963 17.4Z" fill="#35E599"/>
</svg>
