<svg width="82" height="72" viewBox="0 0 82 72" fill="none" xmlns="http://www.w3.org/2000/svg">
<mask id="path-1-inside-1" fill="white">
<path d="M16.7699 2.1705C17.0891 1.97896 17.4296 1.82999 17.7701 1.70229C17.4296 1.82999 17.0891 2.00024 16.7699 2.1705L5.02222 8.8956L16.7699 2.1705ZM41.3506 12.5774L24.3463 2.23434C24.3037 2.21306 24.2399 2.1705 24.1973 2.14922C24.2399 2.1705 24.3037 2.21306 24.3463 2.23434L41.3506 12.5774Z"/>
</mask>
<path d="M16.7699 2.1705C17.0891 1.97896 17.4296 1.82999 17.7701 1.70229C17.4296 1.82999 17.0891 2.00024 16.7699 2.1705L5.02222 8.8956L16.7699 2.1705ZM41.3506 12.5774L24.3463 2.23434C24.3037 2.21306 24.2399 2.1705 24.1973 2.14922C24.2399 2.1705 24.3037 2.21306 24.3463 2.23434L41.3506 12.5774Z" fill="#35E599"/>
<path d="M24.3463 2.23434L24.866 1.37998L24.8306 1.35845L24.7935 1.33992L24.3463 2.23434ZM24.3463 2.23434L24.866 1.37998L24.8306 1.35845L24.7935 1.33992L24.3463 2.23434ZM17.2844 3.02799C17.5329 2.87891 17.8124 2.75444 18.1213 2.63862L17.419 0.765964C17.0468 0.905528 16.6454 1.07902 16.2554 1.31301L17.2844 3.02799ZM17.419 0.765964C17.0163 0.91699 16.6299 1.11184 16.2993 1.28815L17.2405 3.05285C17.5484 2.88864 17.843 2.74298 18.1213 2.63862L17.419 0.765964ZM16.2731 1.30264L4.52541 8.02775L5.51904 9.76346L17.2667 3.03836L16.2731 1.30264ZM5.51904 9.76346L17.2667 3.03836L16.2731 1.30264L4.52541 8.02775L5.51904 9.76346ZM41.8703 11.723L24.866 1.37998L23.8266 3.08871L40.8309 13.4318L41.8703 11.723ZM24.7935 1.33992C24.8094 1.34789 24.8176 1.35284 24.8121 1.34962C24.8074 1.34693 24.801 1.34311 24.7863 1.33428C24.7744 1.32715 24.7542 1.31501 24.7336 1.30307C24.7139 1.29166 24.6817 1.27341 24.6445 1.25479L23.7501 3.04364C23.7341 3.03567 23.726 3.03072 23.7315 3.03394C23.7362 3.03663 23.7426 3.04045 23.7573 3.04928C23.7692 3.05641 23.7894 3.06855 23.81 3.08049C23.8297 3.0919 23.8618 3.11015 23.8991 3.12877L24.7935 1.33992ZM23.7501 3.04364C23.7341 3.03567 23.726 3.03072 23.7315 3.03394C23.7362 3.03663 23.7426 3.04045 23.7573 3.04928C23.7692 3.05641 23.7894 3.06855 23.81 3.08049C23.8297 3.0919 23.8618 3.11015 23.8991 3.12877L24.7935 1.33992C24.8094 1.34789 24.8176 1.35284 24.8121 1.34962C24.8074 1.34693 24.801 1.34311 24.7863 1.33428C24.7744 1.32715 24.7542 1.31501 24.7336 1.30307C24.7139 1.29166 24.6817 1.27341 24.6445 1.25479L23.7501 3.04364ZM23.8266 3.08871L40.8309 13.4318L41.8703 11.723L24.866 1.37998L23.8266 3.08871Z" fill="#35E599" mask="url(#path-1-inside-1)"/>
<path d="M0.999867 43.713L0.999871 15.259C0.999871 14.2161 1.21269 13.2159 1.61705 12.2795C1.70218 12.1092 1.76602 11.939 1.85115 11.79C1.97884 11.5559 2.12782 11.3005 2.27679 11.0877C2.36192 10.96 2.46833 10.811 2.55345 10.6833C2.65986 10.5556 2.76627 10.4279 2.87268 10.3002C2.97909 10.1726 3.0855 10.0661 3.2132 9.93846C3.38345 9.7682 3.57499 9.59794 3.76653 9.44897C3.87294 9.36384 3.97935 9.27871 4.08576 9.21486C4.17089 9.15102 4.2773 9.06589 4.38371 9.00204C4.49012 8.91692 4.61781 8.85307 4.72422 8.78922C4.7455 8.76794 4.76678 8.74666 4.80935 8.74666L16.5357 2.00027C16.855 1.80873 17.1955 1.65976 17.536 1.53207C17.6424 1.48951 17.7701 1.44694 17.8765 1.40438C18.6426 1.14899 19.4514 1.00002 20.2814 1.00002C20.707 1.00002 21.1326 1.04259 21.537 1.10643C21.686 1.12771 21.8349 1.14899 21.9839 1.19156C22.0265 1.19156 22.069 1.21284 22.1116 1.21284C22.1755 1.23412 22.2393 1.23412 22.3031 1.2554C22.4734 1.29797 22.6224 1.34053 22.7713 1.40438C23.0054 1.48951 23.2396 1.57463 23.4737 1.68104C23.6439 1.76617 23.8142 1.8513 23.9844 1.93643C24.027 1.95771 24.0908 2.00027 24.1334 2.02156L41.1377 12.3646L41.1377 31.1992L41.1164 31.1992L16.7911 16.8551L16.7911 39.2012L41.1164 53.5453L41.1164 70.5496C40.4354 70.5496 39.7756 70.4644 39.1372 70.2942C38.9669 70.2516 38.818 70.209 38.669 70.1452C38.3498 70.0388 38.0518 69.9111 37.7539 69.7621C37.6049 69.677 37.4559 69.6132 37.3069 69.528L4.70293 50.204C4.12832 49.8635 3.61755 49.4591 3.17063 48.9909C3.06422 48.8845 2.93653 48.7568 2.8514 48.6291C2.74499 48.5014 2.63858 48.3737 2.55345 48.246C2.06396 47.6076 1.68089 46.884 1.42551 46.1178C1.40422 46.0114 1.36166 45.9263 1.34038 45.8199C1.10628 45.1389 0.999867 44.4366 0.999867 43.713Z" stroke="#35E599" stroke-miterlimit="10"/>
<path d="M81.2334 43.713L81.2334 15.259C81.2334 14.2161 81.0206 13.2159 80.6162 12.2795C80.5311 12.1092 80.4673 11.939 80.3821 11.79C80.2544 11.5559 80.1055 11.3005 79.9565 11.0877C79.8714 10.96 79.7649 10.811 79.6798 10.6833C79.5734 10.5556 79.467 10.4279 79.3606 10.3002C79.2542 10.1726 79.1478 10.0662 79.0201 9.93846C78.8498 9.7682 78.6583 9.59794 78.4667 9.44897C78.3603 9.36384 78.2539 9.27871 78.1475 9.21487C78.0624 9.15102 77.956 9.06589 77.8496 9.00205C77.7432 8.91692 77.6155 8.85307 77.5091 8.78923C77.4878 8.76794 77.4665 8.74667 77.4239 8.74667L65.6976 2.00027C65.3783 1.80873 65.0378 1.65976 64.6973 1.53207C64.5909 1.48951 64.4632 1.44694 64.3568 1.40438C63.5906 1.149 62.7819 1.00002 61.9519 1.00002C61.5263 1.00002 61.1006 1.04259 60.6963 1.10643C60.5473 1.12771 60.3983 1.14899 60.2494 1.19156C60.2068 1.19156 60.1642 1.21284 60.1217 1.21284C60.0578 1.23412 59.994 1.23412 59.9301 1.2554C59.7599 1.29797 59.6109 1.34053 59.4619 1.40438C59.2278 1.48951 58.9937 1.57463 58.7596 1.68104C58.5894 1.76617 58.4191 1.8513 58.2489 1.93643C58.2063 1.95771 58.1425 2.00027 58.0999 2.02155L41.0956 12.3646L41.0956 31.1992L41.1169 31.1992L65.4635 16.8764L65.4634 39.2012L41.1169 53.524L41.1168 70.5496C41.7979 70.5496 42.4576 70.4644 43.0961 70.2942C43.2663 70.2516 43.4153 70.209 43.5643 70.1452C43.8835 70.0388 44.1815 69.9111 44.4794 69.7621C44.6284 69.677 44.7774 69.6132 44.9263 69.528L77.5516 50.1827C78.1262 49.8422 78.637 49.4378 79.0839 48.9696C79.1903 48.8632 79.318 48.7355 79.4032 48.6078C79.5096 48.4801 79.616 48.3524 79.7011 48.2248C80.1906 47.5863 80.5737 46.8627 80.829 46.0966C80.8503 45.9901 80.8929 45.905 80.9142 45.7986C81.127 45.1389 81.2334 44.4366 81.2334 43.713Z" stroke="#35E599" stroke-miterlimit="10"/>
<mask id="path-5-inside-2" fill="white">
<path d="M41.3506 31.4123L41.3506 31.4332L41.3506 31.4123Z"/>
</mask>
<path d="M41.3506 31.4123L41.3506 31.4332L41.3506 31.4123Z" fill="#29D385"/>
<path d="M40.3506 31.4123L40.3506 31.4332L42.3506 31.4332L42.3506 31.4123L40.3506 31.4123ZM42.3506 31.4332L42.3506 31.4123L40.3506 31.4123L40.3506 31.4332L42.3506 31.4332Z" fill="#35E599" mask="url(#path-5-inside-2)"/>
<mask id="path-7-inside-3" fill="white">
<path d="M22.4947 1.44685C22.4308 1.42557 22.367 1.42557 22.3031 1.40429C22.367 1.42557 22.4308 1.42557 22.4947 1.44685C22.6649 1.48941 22.8139 1.53198 22.9629 1.59583C22.8139 1.55326 22.6649 1.48941 22.4947 1.44685Z"/>
</mask>
<path d="M22.4947 1.44685C22.4308 1.42557 22.367 1.42557 22.3031 1.40429C22.367 1.42557 22.4308 1.42557 22.4947 1.44685C22.6649 1.48941 22.8139 1.53198 22.9629 1.59583C22.8139 1.55326 22.6649 1.48941 22.4947 1.44685Z" fill="#29D385"/>
<path d="M22.4947 1.44685L22.1785 2.39553L22.2149 2.40768L22.2521 2.41699L22.4947 1.44685ZM22.9629 1.59583L22.6882 2.55735L23.3568 0.67668L22.9629 1.59583ZM22.8109 0.498165C22.7478 0.477133 22.6923 0.463884 22.6507 0.455229C22.6118 0.447122 22.576 0.441297 22.5633 0.43917C22.5441 0.435977 22.548 0.436483 22.555 0.43794C22.5646 0.439945 22.5882 0.445214 22.6194 0.455605L21.9869 2.35297C22.05 2.374 22.1055 2.38725 22.1471 2.39591C22.186 2.40402 22.2218 2.40984 22.2345 2.41197C22.2537 2.41516 22.2499 2.41465 22.2429 2.4132C22.2332 2.41119 22.2096 2.40592 22.1785 2.39553L22.8109 0.498165ZM21.9869 2.35297C22.05 2.374 22.1055 2.38725 22.1471 2.39591C22.186 2.40402 22.2218 2.40984 22.2345 2.41197C22.2537 2.41516 22.2499 2.41465 22.2429 2.4132C22.2332 2.41119 22.2096 2.40592 22.1785 2.39553L22.8109 0.498165C22.7478 0.477133 22.6923 0.463884 22.6507 0.455229C22.6118 0.447122 22.576 0.441297 22.5633 0.43917C22.5441 0.435977 22.548 0.436483 22.555 0.43794C22.5646 0.439945 22.5882 0.445214 22.6194 0.455605L21.9869 2.35297ZM22.2521 2.41699C22.4065 2.45558 22.4941 2.48289 22.569 2.51497L23.3568 0.67668C23.1337 0.581071 22.9234 0.52325 22.7372 0.476706L22.2521 2.41699ZM23.2376 0.634301C23.1962 0.622469 23.1559 0.608073 23.0628 0.575966C22.9817 0.548005 22.8672 0.509212 22.7372 0.476706L22.2521 2.41699C22.2924 2.42705 22.3376 2.44146 22.4108 2.46671C22.472 2.48781 22.5806 2.52662 22.6882 2.55735L23.2376 0.634301Z" fill="#35E599" mask="url(#path-7-inside-3)"/>
</svg>
