<svg width="124" height="108" viewBox="0 0 124 108" fill="none" xmlns="http://www.w3.org/2000/svg">
<mask id="path-1-inside-1" fill="white">
<path d="M25.0357 2.78381C25.5223 2.49189 26.0412 2.26484 26.5602 2.07022C26.0412 2.26484 25.5223 2.52432 25.0357 2.78381L7.13117 13.0335L25.0357 2.78381ZM62.499 18.6449L36.5829 2.88111C36.518 2.84868 36.4207 2.78381 36.3558 2.75137C36.4207 2.78381 36.518 2.84868 36.5829 2.88111L62.499 18.6449Z"/>
</mask>
<path d="M25.0357 2.78381C25.5223 2.49189 26.0412 2.26484 26.5602 2.07022C26.0412 2.26484 25.5223 2.52432 25.0357 2.78381L7.13117 13.0335L25.0357 2.78381ZM62.499 18.6449L36.5829 2.88111C36.518 2.84868 36.4207 2.78381 36.3558 2.75137C36.4207 2.78381 36.518 2.84868 36.5829 2.88111L62.499 18.6449Z" fill="#35E599"/>
<path d="M36.5829 2.88111L37.1025 2.02675L37.0671 2.00522L37.0301 1.98669L36.5829 2.88111ZM36.5829 2.88111L37.1025 2.02675L37.0671 2.00522L37.0301 1.98669L36.5829 2.88111ZM25.5502 3.6413C25.966 3.39183 26.424 3.18929 26.9113 3.00655L26.2091 1.13389C25.6584 1.34038 25.0785 1.59195 24.5212 1.92632L25.5502 3.6413ZM26.2091 1.13389C25.6279 1.35184 25.063 1.63593 24.5651 1.90146L25.5063 3.66616C25.9815 3.41272 26.4546 3.17783 26.9113 3.00655L26.2091 1.13389ZM24.5389 1.91595L6.63436 12.1656L7.62799 13.9014L25.5325 3.65167L24.5389 1.91595ZM7.62799 13.9014L25.5325 3.65167L24.5389 1.91595L6.63436 12.1656L7.62799 13.9014ZM63.0187 17.7905L37.1025 2.02675L36.0632 3.73548L61.9793 19.4993L63.0187 17.7905ZM37.0301 1.98669C37.0404 1.99188 37.0423 1.99334 37.0302 1.98629C37.0189 1.97976 37.0055 1.97175 36.9838 1.95874C36.9649 1.94743 36.9378 1.93111 36.9105 1.91533C36.8842 1.90009 36.8458 1.87835 36.803 1.85695L35.9086 3.6458C35.8982 3.64061 35.8963 3.63915 35.9085 3.6462C35.9198 3.65273 35.9332 3.66073 35.9548 3.67375C35.9737 3.68506 36.0009 3.70138 36.0281 3.71715C36.0544 3.7324 36.0928 3.75414 36.1356 3.77554L37.0301 1.98669ZM35.9086 3.6458C35.8982 3.64061 35.8963 3.63915 35.9085 3.6462C35.9198 3.65273 35.9332 3.66073 35.9548 3.67375C35.9737 3.68506 36.0009 3.70138 36.0281 3.71715C36.0544 3.7324 36.0928 3.75414 36.1356 3.77554L37.0301 1.98669C37.0404 1.99188 37.0423 1.99334 37.0302 1.98629C37.0189 1.97976 37.0055 1.97175 36.9838 1.95874C36.9649 1.94743 36.9378 1.93111 36.9105 1.91533C36.8842 1.90009 36.8458 1.87835 36.803 1.85695L35.9086 3.6458ZM36.0632 3.73548L61.9793 19.4993L63.0187 17.7905L37.1025 2.02675L36.0632 3.73548Z" fill="#35E599" mask="url(#path-1-inside-1)"/>
<path d="M0.999989 66.0985L0.999995 22.7319C0.999995 21.1426 1.32435 19.6181 1.94063 18.1909C2.07037 17.9314 2.16768 17.6719 2.29743 17.4449C2.49204 17.0881 2.71909 16.6989 2.94614 16.3745C3.07588 16.1799 3.23806 15.9528 3.3678 15.7582C3.52998 15.5636 3.69216 15.369 3.85434 15.1744C4.01652 14.9798 4.1787 14.8176 4.37331 14.623C4.6328 14.3635 4.92472 14.104 5.21664 13.8769C5.37882 13.7472 5.541 13.6174 5.70318 13.5201C5.83292 13.4228 5.9951 13.2931 6.15728 13.1958C6.31946 13.066 6.51408 12.9687 6.67625 12.8714C6.70869 12.839 6.74112 12.8066 6.806 12.8066L24.6781 2.52442C25.1646 2.2325 25.6836 2.00546 26.2026 1.81084C26.3648 1.74597 26.5594 1.6811 26.7216 1.61623C27.8892 1.227 29.1218 0.999949 30.3868 0.999949C31.0355 0.999949 31.6842 1.06482 32.3005 1.16213C32.5276 1.19456 32.7546 1.227 32.9817 1.29187C33.0465 1.29187 33.1114 1.32431 33.1763 1.32431C33.2736 1.35674 33.3709 1.35674 33.4682 1.38917C33.7277 1.45404 33.9547 1.51892 34.1818 1.61623C34.5386 1.74597 34.8954 1.87571 35.2522 2.03789C35.5116 2.16763 35.7711 2.29738 36.0306 2.42712C36.0955 2.45956 36.1928 2.52443 36.2577 2.55686L62.1738 18.3206L62.1738 47.0263L62.1414 47.0263L25.0673 25.1646L25.0673 59.2221L62.1414 81.0838L62.1414 107C61.1034 107 60.0979 106.87 59.1249 106.611C58.8654 106.546 58.6383 106.481 58.4113 106.384C57.9247 106.222 57.4706 106.027 57.0165 105.8C56.7895 105.67 56.5624 105.573 56.3354 105.443L6.64381 75.9914C5.76804 75.4724 4.98959 74.8562 4.30844 74.1426C4.14626 73.9804 3.95165 73.7858 3.8219 73.5912C3.65972 73.3966 3.49754 73.2019 3.36779 73.0073C2.62177 72.0342 2.03793 70.9314 1.6487 69.7637C1.61627 69.6016 1.5514 69.4718 1.51896 69.3096C1.16217 68.2717 0.999989 67.2013 0.999989 66.0985Z" stroke="#35E599" stroke-miterlimit="10"/>
<path d="M123.283 66.0985L123.283 22.7319C123.283 21.1426 122.959 19.6181 122.343 18.1909C122.213 17.9314 122.116 17.6719 121.986 17.4449C121.791 17.0881 121.564 16.6989 121.337 16.3745C121.207 16.1799 121.045 15.9528 120.915 15.7582C120.753 15.5636 120.591 15.369 120.429 15.1744C120.267 14.9798 120.105 14.8176 119.91 14.623C119.65 14.3635 119.358 14.104 119.067 13.8769C118.904 13.7472 118.742 13.6175 118.58 13.5201C118.45 13.4228 118.288 13.2931 118.126 13.1958C117.964 13.066 117.769 12.9687 117.607 12.8714C117.575 12.839 117.542 12.8066 117.477 12.8066L99.6051 2.52442C99.1186 2.2325 98.5996 2.00546 98.0806 1.81084C97.9185 1.74597 97.7238 1.6811 97.5617 1.61623C96.394 1.227 95.1614 0.999949 93.8964 0.999949C93.2477 0.999949 92.599 1.06482 91.9827 1.16213C91.7557 1.19456 91.5286 1.227 91.3016 1.29187C91.2367 1.29187 91.1718 1.32431 91.1069 1.32431C91.0096 1.35674 90.9123 1.35674 90.815 1.38917C90.5555 1.45404 90.3285 1.51892 90.1014 1.61623C89.7446 1.74597 89.3878 1.87571 89.0311 2.03789C88.7716 2.16763 88.5121 2.29738 88.2526 2.42712C88.1877 2.45956 88.0904 2.52443 88.0255 2.55686L62.1094 18.3206L62.1094 47.0263L62.1418 47.0263L99.2483 25.197L99.2483 59.2221L62.1418 81.0514L62.1418 107C63.1797 107 64.1852 106.87 65.1583 106.611C65.4178 106.546 65.6449 106.481 65.8719 106.384C66.3584 106.222 66.8125 106.027 67.2666 105.8C67.4937 105.67 67.7207 105.573 67.9478 105.443L117.672 75.959C118.548 75.44 119.326 74.8237 120.007 74.1101C120.169 73.948 120.364 73.7533 120.494 73.5587C120.656 73.3641 120.818 73.1695 120.948 72.9749C121.694 72.0018 122.278 70.899 122.667 69.7313C122.699 69.5691 122.764 69.4394 122.797 69.2772C123.121 68.2717 123.283 67.2013 123.283 66.0985Z" stroke="#35E599" stroke-miterlimit="10"/>
<mask id="path-5-inside-2" fill="white">
<path d="M62.499 47.3509L62.499 47.3831L62.499 47.3509Z"/>
</mask>
<path d="M62.499 47.3509L62.499 47.3831L62.499 47.3509Z" fill="#29D385"/>
<path d="M61.499 47.3509L61.499 47.3831L63.499 47.3831L63.499 47.3509L61.499 47.3509ZM63.499 47.3831L63.499 47.3509L61.499 47.3509L61.499 47.3831L63.499 47.3831Z" fill="#35E599" mask="url(#path-5-inside-2)"/>
<mask id="path-7-inside-3" fill="white">
<path d="M33.76 1.68115C33.6627 1.64871 33.5654 1.64872 33.4681 1.61628C33.5654 1.64872 33.6627 1.64871 33.76 1.68115C34.0195 1.74602 34.2466 1.8109 34.4736 1.9082C34.2466 1.84333 34.0195 1.74602 33.76 1.68115Z"/>
</mask>
<path d="M33.76 1.68115C33.6627 1.64871 33.5654 1.64872 33.4681 1.61628C33.5654 1.64872 33.6627 1.64871 33.76 1.68115C34.0195 1.74602 34.2466 1.8109 34.4736 1.9082C34.2466 1.84333 34.0195 1.74602 33.76 1.68115Z" fill="#29D385"/>
<path d="M33.76 1.68115L33.4438 2.62983L33.4802 2.64198L33.5175 2.65129L33.76 1.68115ZM34.4736 1.9082L34.1989 2.86973L34.8676 0.989058L34.4736 1.9082ZM34.0763 0.732465C33.9415 0.687539 33.8163 0.668617 33.7785 0.662317C33.719 0.652402 33.7469 0.655109 33.7844 0.6676L33.1519 2.56497C33.2867 2.60989 33.4119 2.62881 33.4497 2.63511C33.5092 2.64503 33.4813 2.64232 33.4438 2.62983L34.0763 0.732465ZM33.1519 2.56497C33.2867 2.60989 33.4119 2.62881 33.4497 2.63511C33.5092 2.64503 33.4813 2.64232 33.4438 2.62983L34.0763 0.732465C33.9415 0.687539 33.8163 0.668617 33.7785 0.662317C33.719 0.652402 33.7469 0.655109 33.7844 0.6676L33.1519 2.56497ZM33.5175 2.65129C33.7611 2.71218 33.9268 2.7618 34.0797 2.82735L34.8676 0.989058C34.5664 0.859988 34.278 0.779858 34.0026 0.711006L33.5175 2.65129ZM34.7484 0.946679C34.6679 0.923693 34.5885 0.895355 34.455 0.849305C34.3335 0.807402 34.1772 0.754666 34.0026 0.711006L33.5175 2.65129C33.6024 2.6725 33.6894 2.70086 33.803 2.74005C33.9046 2.77509 34.0523 2.82784 34.1989 2.86973L34.7484 0.946679Z" fill="#35E599" mask="url(#path-7-inside-3)"/>
</svg>
