<svg width="352" height="305" viewBox="0 0 352 305" fill="none" xmlns="http://www.w3.org/2000/svg">
<mask id="path-1-inside-1" fill="white">
<path d="M281.975 298.901C280.584 299.735 279.101 300.384 277.617 300.94C279.101 300.384 280.584 299.642 281.975 298.901L333.155 269.602L281.975 298.901ZM174.887 253.562L248.968 298.622C249.153 298.715 249.431 298.901 249.617 298.993C249.431 298.901 249.153 298.715 248.968 298.622L174.887 253.562Z"/>
</mask>
<path d="M281.975 298.901C280.584 299.735 279.101 300.384 277.617 300.94C279.101 300.384 280.584 299.642 281.975 298.901L333.155 269.602L281.975 298.901ZM174.887 253.562L248.968 298.622C249.153 298.715 249.431 298.901 249.617 298.993C249.431 298.901 249.153 298.715 248.968 298.622L174.887 253.562Z" fill="#35E599"/>
<path d="M248.968 298.622L248.448 299.477L248.484 299.498L248.521 299.517L248.968 298.622ZM248.968 298.622L248.448 299.477L248.484 299.498L248.521 299.517L248.968 298.622ZM281.461 298.043C280.141 298.835 278.718 299.46 277.266 300.004L277.969 301.877C279.484 301.308 281.028 300.635 282.49 299.758L281.461 298.043ZM277.969 301.877C279.514 301.297 281.044 300.531 282.446 299.783L281.505 298.018C280.125 298.754 278.688 299.471 277.266 300.004L277.969 301.877ZM282.472 299.768L333.652 270.47L332.658 268.734L281.478 298.033L282.472 299.768ZM332.658 268.734L281.478 298.033L282.472 299.768L333.652 270.47L332.658 268.734ZM174.367 254.416L248.448 299.477L249.487 297.768L175.406 252.707L174.367 254.416ZM248.521 299.517C248.571 299.542 248.65 299.589 248.778 299.665C248.882 299.728 249.035 299.82 249.17 299.888L250.064 298.099C250.013 298.073 249.935 298.027 249.807 297.95C249.703 297.888 249.55 297.795 249.415 297.728L248.521 299.517ZM250.064 298.099C250.013 298.073 249.935 298.027 249.807 297.95C249.703 297.888 249.55 297.795 249.415 297.728L248.521 299.517C248.571 299.542 248.65 299.589 248.778 299.665C248.882 299.728 249.035 299.82 249.17 299.888L250.064 298.099ZM249.487 297.768L175.406 252.707L174.367 254.416L248.448 299.477L249.487 297.768Z" fill="#35E599" mask="url(#path-1-inside-1)"/>
<path d="M350.679 117.916V241.879C350.679 246.423 349.752 250.78 347.99 254.86C347.62 255.602 347.341 256.343 346.971 256.992C346.414 258.012 345.765 259.125 345.116 260.052C344.745 260.608 344.282 261.257 343.911 261.814C343.447 262.37 342.984 262.926 342.52 263.483C342.057 264.039 341.593 264.502 341.037 265.059C340.295 265.8 339.46 266.542 338.626 267.191C338.162 267.562 337.699 267.933 337.235 268.211C336.864 268.489 336.401 268.86 335.937 269.138C335.474 269.509 334.917 269.787 334.454 270.066C334.361 270.158 334.268 270.251 334.083 270.251L282.996 299.642C281.605 300.477 280.121 301.126 278.638 301.682C278.174 301.867 277.618 302.053 277.154 302.238C273.817 303.351 270.293 304 266.677 304C264.823 304 262.969 303.815 261.207 303.536C260.558 303.444 259.909 303.351 259.26 303.166C259.075 303.166 258.889 303.073 258.704 303.073C258.426 302.98 258.147 302.98 257.869 302.887C257.128 302.702 256.478 302.517 255.829 302.238C254.81 301.868 253.79 301.497 252.77 301.033C252.028 300.662 251.286 300.291 250.545 299.92C250.359 299.828 250.081 299.642 249.896 299.55L175.814 254.489V172.434H175.907L281.883 234.926V137.573L175.907 75.0811V1C178.874 1 181.748 1.37087 184.53 2.11261C185.272 2.29804 185.921 2.48348 186.57 2.76163C187.96 3.22521 189.258 3.78152 190.557 4.43054C191.206 4.80141 191.855 5.07956 192.504 5.45043L334.546 89.6377C337.05 91.1212 339.275 92.8828 341.222 94.9226C341.686 95.3862 342.242 95.9425 342.613 96.4988C343.076 97.0551 343.54 97.6114 343.911 98.1677C346.043 100.949 347.712 104.102 348.825 107.439C348.918 107.903 349.103 108.274 349.196 108.737C350.216 111.704 350.679 114.764 350.679 117.916Z" stroke="#35E599" stroke-miterlimit="10"/>
<path d="M1.13477 117.916V241.879C1.13477 246.423 2.06194 250.78 3.82357 254.86C4.19444 255.602 4.47259 256.343 4.84346 256.992C5.39976 258.012 6.04878 259.125 6.6978 260.052C7.06867 260.608 7.53226 261.257 7.90313 261.814C8.36671 262.37 8.8303 262.926 9.29389 263.483C9.75747 264.039 10.2211 264.502 10.7774 265.059C11.5191 265.8 12.3536 266.542 13.188 267.191C13.6516 267.562 14.1152 267.933 14.5788 268.211C14.9496 268.489 15.4132 268.86 15.8768 269.138C16.3404 269.509 16.8967 269.787 17.3603 270.066C17.453 270.158 17.5457 270.251 17.7312 270.251L68.8184 299.642C70.2091 300.477 71.6926 301.126 73.1761 301.682C73.6397 301.867 74.196 302.053 74.6596 302.238C77.9974 303.351 81.5206 304 85.1366 304C86.991 304 88.8453 303.815 90.6069 303.536C91.256 303.444 91.905 303.351 92.554 303.166C92.7394 303.166 92.9249 303.073 93.1103 303.073C93.3884 302.98 93.6666 302.98 93.9448 302.887C94.6865 302.702 95.3355 302.517 95.9845 302.238C97.0044 301.868 98.0243 301.497 99.0442 301.033C99.7859 300.662 100.528 300.291 101.269 299.92C101.455 299.828 101.733 299.642 101.918 299.55L176 254.489V172.434H175.907L69.8383 234.833V137.573L175.907 75.1738V1C172.94 1 170.066 1.37087 167.284 2.11261C166.542 2.29804 165.893 2.48348 165.244 2.76163C163.854 3.22521 162.556 3.78152 161.257 4.43054C160.608 4.80141 159.959 5.07956 159.31 5.45043L17.1749 89.7304C14.6715 91.2139 12.4463 92.9755 10.4992 95.0153C10.0356 95.4789 9.47932 96.0352 9.10845 96.5915C8.64487 97.1478 8.18128 97.7041 7.81041 98.2604C5.67791 101.042 4.009 104.194 2.89639 107.532C2.80368 107.996 2.61824 108.367 2.52552 108.83C1.59835 111.704 1.13477 114.764 1.13477 117.916Z" stroke="#35E599" stroke-miterlimit="10"/>
<mask id="path-5-inside-2" fill="white">
<path d="M174.887 171.507V171.414V171.507Z"/>
</mask>
<path d="M174.887 171.507V171.414V171.507Z" fill="#29D385"/>
<path d="M175.887 171.507V171.414H173.887V171.507H175.887ZM173.887 171.414V171.507H175.887V171.414H173.887Z" fill="#35E599" mask="url(#path-5-inside-2)"/>
<mask id="path-7-inside-3" fill="white">
<path d="M257.034 302.053C257.312 302.146 257.59 302.146 257.868 302.238C257.59 302.146 257.312 302.146 257.034 302.053C256.292 301.867 255.643 301.682 254.994 301.404C255.643 301.589 256.292 301.867 257.034 302.053Z"/>
</mask>
<path d="M257.034 302.053C257.312 302.146 257.59 302.146 257.868 302.238C257.59 302.146 257.312 302.146 257.034 302.053C256.292 301.867 255.643 301.682 254.994 301.404C255.643 301.589 256.292 301.867 257.034 302.053Z" fill="#29D385"/>
<path d="M257.034 302.053L257.35 301.104L257.314 301.092L257.276 301.083L257.034 302.053ZM254.994 301.404L255.269 300.442L254.6 302.323L254.994 301.404ZM256.718 303.002C256.943 303.077 257.159 303.111 257.287 303.132C257.437 303.157 257.499 303.169 257.552 303.187L258.185 301.29C257.959 301.215 257.744 301.181 257.616 301.159C257.466 301.134 257.403 301.122 257.35 301.104L256.718 303.002ZM258.185 301.29C257.959 301.215 257.744 301.181 257.616 301.159C257.466 301.134 257.403 301.122 257.35 301.104L256.718 303.002C256.943 303.077 257.159 303.111 257.287 303.132C257.437 303.157 257.499 303.169 257.552 303.187L258.185 301.29ZM257.276 301.083C256.551 300.901 255.963 300.731 255.388 300.485L254.6 302.323C255.323 302.633 256.034 302.834 256.791 303.023L257.276 301.083ZM254.719 302.365C255.011 302.449 255.301 302.552 255.653 302.674C255.993 302.791 256.376 302.919 256.791 303.023L257.276 301.083C256.95 301.001 256.637 300.897 256.305 300.783C255.985 300.673 255.626 300.544 255.269 300.442L254.719 302.365Z" fill="#35E599" mask="url(#path-7-inside-3)"/>
</svg>
