<svg width="125" height="25" viewBox="0 0 125 25" fill="none" xmlns="http://www.w3.org/2000/svg">
<path d="M26.5909 7.08107L15.2685 0.368806C14.8629 0.122935 14.408 0 13.9409 0C13.4737 0 13.0188 0.122935 12.6132 0.368806L1.27853 7.08107C0.491741 7.54822 0 8.40877 0 9.31849V19.2025C0 20.1368 0.504034 21.0096 1.31541 21.4645L5.39685 23.8003C5.79025 24.0215 6.23281 24.1445 6.68767 24.1445C7.15483 24.1445 7.60969 24.0215 8.01537 23.7757L13.9286 20.186L19.8417 23.7757C20.0384 23.8986 20.2597 23.9847 20.481 24.0461C20.7023 24.1076 20.9359 24.1445 21.1694 24.1445C21.6243 24.1445 22.0669 24.0215 22.4603 23.8003L26.5417 21.4645C27.3531 20.9973 27.8571 20.1368 27.8571 19.2025V9.31849C27.8694 8.40877 27.3777 7.54822 26.5909 7.08107ZM22.3865 18.637L13.9409 13.6581L5.48291 18.637V10.8798L13.9409 5.90089L22.3988 10.8798V18.637H22.3865Z" fill="#35E599"/>
<path d="M27.8696 9.31849V19.2025C27.8696 20.1368 27.3656 21.0096 26.5542 21.4645L22.4728 23.8003C22.0794 24.0215 21.6245 24.1445 21.1819 24.1445C20.9484 24.1445 20.7148 24.1076 20.4935 24.0461C20.2722 23.9847 20.0509 23.8986 19.8542 23.7757L13.9411 20.186V13.6458L22.3867 18.637V10.8798L13.9288 5.90089V0C14.3959 0 14.8631 0.122935 15.2565 0.368806L26.5788 7.08107C27.3779 7.54822 27.8696 8.40877 27.8696 9.31849Z" fill="#29D385"/>
<path d="M62.0822 5.06512H59.353H59.3407C59.3284 5.06512 59.3284 5.06512 59.3161 5.06512C59.2915 5.06512 59.2424 5.06512 59.1809 5.23723L58.6154 6.94603L58.4433 6.71245C57.4844 5.44622 56.1567 4.83154 54.3864 4.83154C50.1943 4.83154 47.3914 7.74511 47.3914 12.0724C47.3914 16.4243 50.182 19.3379 54.325 19.3379H54.3864C56.0706 19.3379 57.4721 18.6618 58.4433 17.3955L58.6154 17.1619L59.1563 18.8093C59.2178 18.9937 59.267 19.006 59.3407 19.006H62.0576C62.1805 19.006 62.2297 18.9322 62.2297 18.8584V5.21264C62.2297 5.13888 62.2051 5.06512 62.0822 5.06512ZM54.5954 15.9203C52.4686 15.9203 50.9197 14.2976 50.9197 12.0601C50.9197 9.78583 52.4318 8.19997 54.5954 8.19997C56.7837 8.19997 58.3204 9.78583 58.3572 12.0601C58.3327 14.3344 56.7837 15.9203 54.5954 15.9203Z" fill="#23252E"/>
<path d="M124.853 5.06512H122.124H122.111C122.099 5.06512 122.099 5.06512 122.087 5.06512C122.062 5.06512 122.013 5.06512 121.952 5.23723L121.386 6.94603L121.214 6.71245C120.255 5.44622 118.927 4.83154 117.169 4.83154C112.977 4.83154 110.174 7.74511 110.174 12.0724C110.174 16.4243 112.965 19.3379 117.108 19.3379H117.169C118.854 19.3379 120.255 18.6618 121.214 17.3955L121.386 17.1619L121.927 18.8093C121.988 18.9937 122.05 19.006 122.111 19.006H124.828C124.951 19.006 125 18.9322 125 18.8584V5.21264C125 5.11429 124.939 5.06512 124.853 5.06512ZM117.366 15.9203C115.239 15.9203 113.69 14.2976 113.69 12.0601C113.69 9.78583 115.202 8.19997 117.366 8.19997C119.554 8.19997 121.091 9.78583 121.128 12.0601C121.103 14.3344 119.554 15.9203 117.366 15.9203Z" fill="#23252E"/>
<path d="M73.8345 5.31057L73.4042 7.1546L73.0231 8.75275C73.0108 8.80193 72.9617 8.83881 72.8756 8.83881C72.851 8.83881 72.8264 8.83881 72.7896 8.82652C72.3962 8.64211 71.5479 8.39624 70.8718 8.39624C70.6136 8.39624 70.3554 8.44542 70.1096 8.53147C69.1384 8.8634 68.4868 9.81 68.4868 10.8795V18.8703C68.4868 18.9072 68.4868 19.0178 68.3147 19.0178H65.0323C64.934 19.0178 64.8848 18.9687 64.8848 18.8703L64.8602 5.22451C64.8602 5.16305 64.8848 5.07699 65.0323 5.07699H67.2944C67.5156 5.07699 67.5525 5.23681 67.5648 5.26139V5.27369L67.9828 6.35552L68.1549 6.1957C68.8065 5.58103 69.876 4.868 71.3512 4.78195C71.4373 4.78195 71.5356 4.76965 71.6217 4.76965C72.433 4.76965 73.1215 4.95406 73.5886 5.07699L73.7362 5.11387C73.7976 5.13846 73.8714 5.18763 73.8345 5.31057Z" fill="#23252E"/>
<path d="M100.856 19.0056C100.758 19.0056 100.709 18.9564 100.709 18.858L100.672 5.21222C100.672 5.17534 100.672 5.0647 100.844 5.0647H103.106C103.315 5.0647 103.364 5.21222 103.376 5.2491V5.26139L103.794 6.34322L103.966 6.18341C104.655 5.53185 105.823 4.76965 107.433 4.76965C108.244 4.76965 108.933 4.95406 109.4 5.07699L109.548 5.11387C109.584 5.12617 109.621 5.15075 109.646 5.18763C109.658 5.22451 109.658 5.26139 109.646 5.29827V5.31057L108.847 8.74046C108.835 8.78963 108.773 8.82652 108.699 8.82652C108.675 8.82652 108.65 8.82652 108.613 8.81422C108.22 8.62982 107.372 8.38395 106.695 8.38395C106.437 8.38395 106.179 8.43312 105.933 8.51918C104.962 8.8511 104.311 9.7977 104.311 10.8672V18.858C104.311 18.8949 104.311 19.0056 104.138 19.0056H100.856Z" fill="#23252E"/>
<path d="M97.2293 6.63834C96.0122 5.40899 94.3034 4.79431 92.1397 4.79431C87.8247 4.79431 84.9357 7.72017 84.9357 12.0598C84.9357 14.1989 85.6242 16.0183 86.9396 17.3337C88.255 18.6491 90.099 19.3375 92.2627 19.3375C94.8689 19.3007 96.7129 18.6614 97.8931 17.3706C97.9914 17.2476 97.9054 17.1616 97.8685 17.1247L95.8524 14.9979C95.8032 14.9488 95.7786 14.9242 95.754 14.9242C95.7049 14.9242 95.5942 15.0102 95.5573 15.0348C94.8443 15.6495 93.7256 15.9937 92.5085 15.9937C90.6399 15.9937 89.2876 15.1209 88.7836 13.5965L88.7221 13.3998H99.2331H99.2454C99.2577 13.3998 99.2577 13.3998 99.27 13.3998C99.2823 13.3998 99.3069 13.3998 99.3314 13.3752C99.356 13.3506 99.3683 13.3014 99.3683 13.2523C99.3683 10.3018 98.6553 8.07668 97.2293 6.63834ZM88.6484 10.9411L88.6975 10.7567C89.1032 9.08475 90.3572 8.13815 92.152 8.13815C93.9346 8.13815 95.1762 9.09704 95.5819 10.7567L95.6311 10.9411H88.6484Z" fill="#23252E"/>
<path d="M84.3579 18.0961C83.0794 18.9075 81.7025 19.3132 80.2396 19.3132C80.0921 19.3132 79.9323 19.3132 79.8093 19.3009C77.6702 19.1902 76.2934 18.3051 75.6172 16.5963C75.3222 15.8587 75.187 15.0227 75.187 13.9409C75.187 13.7934 75.187 5.50753 75.187 4.26589C75.187 4.08149 75.2976 3.90938 75.4574 3.83562L78.2603 2.48333C78.4447 2.39727 78.6537 2.5325 78.6537 2.7292V5.50753H83.399C83.522 5.50753 83.6203 5.60588 83.6203 5.72882V8.34734C83.6203 8.47027 83.522 8.56862 83.399 8.56862C82.477 8.56862 78.6414 8.56862 78.6414 8.56862C78.6414 8.56862 78.6537 13.5106 78.666 14.0024C78.7029 15.3301 79.4897 16.08 80.8174 16.08C80.8789 16.08 80.9403 16.08 81.0018 16.08C81.6779 16.0431 82.2926 15.8095 82.9688 15.4653L83.2146 15.3301C83.2761 15.2932 83.3621 15.3178 83.3867 15.3915L83.6449 15.9201C83.9154 16.5102 84.1981 17.1126 84.4931 17.6904C84.5792 17.8994 84.5669 17.9609 84.3579 18.0961Z" fill="#23252E"/>
<path d="M46.1006 15.9449C46.1129 15.9572 46.1252 15.9695 46.1252 15.9941C46.1252 16.0432 46.1129 16.0924 46.076 16.1416L46.0637 16.1539C44.6623 18.2684 42.6093 19.301 39.7818 19.301C37.9008 19.2764 36.1675 18.6126 34.8889 17.4447C33.4629 16.1416 32.713 14.2976 32.7007 12.1093C32.7007 12.097 32.7007 12.0355 32.7007 12.0233C32.713 9.83501 33.4752 7.99098 34.8889 6.68787C36.1675 5.51998 37.9008 4.85613 39.7818 4.83154C42.597 4.83154 44.65 5.8642 46.0637 7.97868L46.076 7.99098C46.1129 8.04015 46.1375 8.10162 46.1252 8.1385C46.1252 8.16309 46.1129 8.17538 46.1006 8.18767L43.5805 10.2284V10.2407C43.5559 10.2653 43.5067 10.2776 43.4821 10.2776C43.4575 10.2776 43.3838 10.253 43.3469 10.1792V10.1669V10.1546C42.5232 8.97446 41.3307 8.35978 39.917 8.35978C37.7287 8.35978 36.2535 9.8473 36.2412 12.0601C36.2535 14.273 37.7287 15.7605 39.917 15.7605C41.343 15.7605 42.5232 15.1458 43.3469 13.9656V13.9533V13.941C43.3838 13.8673 43.4575 13.8427 43.4821 13.8427C43.5067 13.8427 43.5559 13.855 43.5805 13.8919V13.9042L46.1006 15.9449Z" fill="#23252E"/>
</svg>
